<svg width="237" height="82" viewBox="0 0 237 82" fill="none" xmlns="http://www.w3.org/2000/svg">
<path d="M15.4448 52L25.3968 29.44H27.7008L37.8128 52H35.0608L32.2448 45.568L33.4288 46.24H19.6368L20.9168 45.568L18.1648 52H15.4448ZM26.5168 32.48L21.3328 44.64L20.5648 44.064H32.4688L31.8928 44.64L26.5808 32.48H26.5168ZM49.6045 52.288C48.3245 52.288 47.1298 52.1173 46.0205 51.776C44.9112 51.4133 43.9938 50.912 43.2685 50.272L44.1645 48.448C44.9538 49.0667 45.8072 49.5253 46.7245 49.824C47.6632 50.1227 48.6338 50.272 49.6365 50.272C50.9165 50.272 51.8765 50.048 52.5165 49.6C53.1778 49.1307 53.5085 48.4907 53.5085 47.68C53.5085 47.0613 53.2952 46.5707 52.8685 46.208C52.4632 45.824 51.7912 45.5253 50.8525 45.312L47.8765 44.704C46.5112 44.4053 45.4872 43.904 44.8045 43.2C44.1218 42.4747 43.7805 41.5573 43.7805 40.448C43.7805 39.5093 44.0258 38.688 44.5165 37.984C45.0072 37.2587 45.7218 36.6933 46.6605 36.288C47.5992 35.8613 48.6978 35.648 49.9565 35.648C51.1298 35.648 52.2072 35.8293 53.1885 36.192C54.1912 36.5333 55.0232 37.0347 55.6845 37.696L54.7565 39.488C54.1165 38.8693 53.3805 38.4107 52.5485 38.112C51.7378 37.792 50.8952 37.632 50.0205 37.632C48.7618 37.632 47.8125 37.888 47.1725 38.4C46.5538 38.8907 46.2445 39.5413 46.2445 40.352C46.2445 40.9707 46.4365 41.4827 46.8205 41.888C47.2258 42.272 47.8445 42.56 48.6765 42.752L51.6525 43.36C53.1032 43.68 54.1805 44.1813 54.8845 44.864C55.6098 45.5253 55.9725 46.4213 55.9725 47.552C55.9725 48.512 55.7058 49.3547 55.1725 50.08C54.6392 50.784 53.8925 51.328 52.9325 51.712C51.9938 52.096 50.8845 52.288 49.6045 52.288ZM70.4075 52.288C68.8288 52.288 67.4528 51.9467 66.2795 51.264C65.1275 50.5813 64.2315 49.6107 63.5915 48.352C62.9728 47.0933 62.6635 45.6 62.6635 43.872C62.6635 42.1227 62.9835 40.64 63.6235 39.424C64.2635 38.1867 65.1595 37.248 66.3115 36.608C67.4848 35.968 68.8502 35.648 70.4075 35.648C71.4315 35.648 72.4235 35.8293 73.3835 36.192C74.3648 36.5547 75.1755 37.0667 75.8155 37.728L74.8875 39.584C74.2475 38.9653 73.5435 38.5067 72.7755 38.208C72.0288 37.9093 71.2928 37.76 70.5675 37.76C68.9035 37.76 67.6128 38.2827 66.6955 39.328C65.7782 40.3733 65.3195 41.8987 65.3195 43.904C65.3195 45.888 65.7782 47.424 66.6955 48.512C67.6128 49.6 68.9035 50.144 70.5675 50.144C71.2715 50.144 71.9968 50.0053 72.7435 49.728C73.5115 49.4507 74.2262 48.992 74.8875 48.352L75.8155 50.176C75.1542 50.8587 74.3328 51.3813 73.3515 51.744C72.3702 52.1067 71.3888 52.288 70.4075 52.288ZM83.0192 52V28.448H85.6112V52H83.0192ZM101.3 52.288C98.7829 52.288 96.7989 51.5627 95.3483 50.112C93.8976 48.64 93.1723 46.6027 93.1723 44C93.1723 42.3147 93.4923 40.8533 94.1323 39.616C94.7723 38.3573 95.6683 37.3867 96.8203 36.704C97.9723 36 99.2949 35.648 100.788 35.648C102.26 35.648 103.498 35.9573 104.5 36.576C105.503 37.1947 106.271 38.08 106.804 39.232C107.338 40.3627 107.604 41.7067 107.604 43.264V44.224H95.1563V42.592H105.908L105.364 43.008C105.364 41.3013 104.98 39.968 104.212 39.008C103.444 38.048 102.303 37.568 100.788 37.568C99.1883 37.568 97.9403 38.1333 97.0443 39.264C96.1483 40.3733 95.7003 41.8773 95.7003 43.776V44.064C95.7003 46.0693 96.1909 47.5947 97.1723 48.64C98.1749 49.664 99.5723 50.176 101.364 50.176C102.324 50.176 103.22 50.0373 104.052 49.76C104.906 49.4613 105.716 48.9813 106.484 48.32L107.38 50.144C106.676 50.8267 105.78 51.36 104.692 51.744C103.626 52.1067 102.495 52.288 101.3 52.288ZM115.091 58.912V39.648C115.091 39.0507 115.059 38.4427 114.995 37.824C114.952 37.184 114.899 36.5547 114.835 35.936H117.331L117.683 39.744H117.299C117.64 38.4853 118.333 37.4933 119.379 36.768C120.424 36.0213 121.672 35.648 123.123 35.648C124.573 35.648 125.821 35.9787 126.867 36.64C127.933 37.3013 128.765 38.2507 129.363 39.488C129.96 40.7253 130.259 42.2187 130.259 43.968C130.259 45.696 129.96 47.1787 129.363 48.416C128.787 49.6533 127.965 50.6133 126.899 51.296C125.832 51.9573 124.573 52.288 123.123 52.288C121.693 52.288 120.456 51.9253 119.411 51.2C118.365 50.4747 117.672 49.4827 117.331 48.224H117.683V58.912H115.091ZM122.611 50.176C124.147 50.176 125.363 49.6533 126.259 48.608C127.176 47.5413 127.635 45.9947 127.635 43.968C127.635 41.92 127.176 40.3733 126.259 39.328C125.363 38.2613 124.147 37.728 122.611 37.728C121.096 37.728 119.88 38.2613 118.963 39.328C118.067 40.3733 117.619 41.92 117.619 43.968C117.619 45.9947 118.067 47.5413 118.963 48.608C119.88 49.6533 121.096 50.176 122.611 50.176ZM137.798 52V35.936H140.39V52H137.798ZM137.478 32.288V29.376H140.678V32.288H137.478ZM154.607 52.288C152.708 52.288 151.268 51.7653 150.287 50.72C149.327 49.6747 148.847 48.0747 148.847 45.92V35.936H151.439V45.856C151.439 47.328 151.738 48.416 152.335 49.12C152.932 49.8027 153.86 50.144 155.119 50.144C156.527 50.144 157.658 49.6853 158.511 48.768C159.364 47.8507 159.791 46.624 159.791 45.088V35.936H162.383V52H159.855V48.384H160.271C159.823 49.6213 159.098 50.5813 158.095 51.264C157.114 51.9467 155.951 52.288 154.607 52.288ZM176.276 52.288C174.996 52.288 173.801 52.1173 172.692 51.776C171.582 51.4133 170.665 50.912 169.94 50.272L170.836 48.448C171.625 49.0667 172.478 49.5253 173.396 49.824C174.334 50.1227 175.305 50.272 176.308 50.272C177.588 50.272 178.548 50.048 179.188 49.6C179.849 49.1307 180.18 48.4907 180.18 47.68C180.18 47.0613 179.966 46.5707 179.54 46.208C179.134 45.824 178.462 45.5253 177.524 45.312L174.548 44.704C173.182 44.4053 172.158 43.904 171.476 43.2C170.793 42.4747 170.452 41.5573 170.452 40.448C170.452 39.5093 170.697 38.688 171.188 37.984C171.678 37.2587 172.393 36.6933 173.332 36.288C174.27 35.8613 175.369 35.648 176.628 35.648C177.801 35.648 178.878 35.8293 179.86 36.192C180.862 36.5333 181.694 37.0347 182.356 37.696L181.428 39.488C180.788 38.8693 180.052 38.4107 179.22 38.112C178.409 37.792 177.566 37.632 176.692 37.632C175.433 37.632 174.484 37.888 173.844 38.4C173.225 38.8907 172.916 39.5413 172.916 40.352C172.916 40.9707 173.108 41.4827 173.492 41.888C173.897 42.272 174.516 42.56 175.348 42.752L178.324 43.36C179.774 43.68 180.852 44.1813 181.556 44.864C182.281 45.5253 182.644 46.4213 182.644 47.552C182.644 48.512 182.377 49.3547 181.844 50.08C181.31 50.784 180.564 51.328 179.604 51.712C178.665 52.096 177.556 52.288 176.276 52.288Z" fill="white"/>
<path d="M188.375 52L198.327 29.44H200.631L210.743 52H207.991L205.175 45.568L206.359 46.24H192.567L193.847 45.568L191.095 52H188.375ZM199.447 32.48L194.263 44.64L193.495 44.064H205.399L204.823 44.64L199.511 32.48H199.447ZM217.666 52V29.44H220.322V52H217.666Z" fill="#41A1BC"/>
</svg>
